<svg xmlns="http://www.w3.org/2000/svg" viewBox="0 0 1200 720"><rect width="1200" height="720" fill="#0b1727"/><path d="M0 590 1200 260v460H0z" fill="#164f3c"/><path d="M80 580h500" stroke="#c7f267" stroke-width="7" stroke-dasharray="28 18"/><circle cx="815" cy="335" r="230" fill="#fff"/><path d="m815 190 84 61-32 99H763l-32-99z" fill="#167447"/><path d="m659 267 72-16 32 99-85 62-69-55zm312 0 50 90-69 55-85-62 32-99zM678 412l85-62h104l85 62-33 100H711z" fill="#071525"/><path d="M105 130h390M105 205h290M105 280h210" stroke="#fff" stroke-width="24" opacity=".92"/><path d="M105 345h250" stroke="#f3a82b" stroke-width="12"/></svg>
