<svg xmlns="http://www.w3.org/2000/svg" viewBox="0 0 960 700"><rect width="960" height="700" fill="#071525"/><path d="M0 490 960 240v460H0z" fill="#dbe5eb"/><path d="M0 620h960M390 390v310" stroke="#fff" stroke-width="7"/><circle cx="640" cy="320" r="175" fill="#fff" stroke="#cbd8df" stroke-width="8"/><path d="m640 210 64 46-24 75h-80l-24-75z" fill="#167447"/><path d="m518 280 58-24 24 75-64 46-54-40zm244 0 36 57-54 40-64-46 24-75zM536 377l64-46h80l64 46-25 76H561z" fill="#071525"/><path d="m745 180 145-60" stroke="#f3a82b" stroke-width="12"/></svg>
