<svg xmlns="http://www.w3.org/2000/svg" viewBox="0 0 960 700"><rect width="960" height="700" fill="#0b1727"/><rect x="80" y="90" width="520" height="370" rx="30" fill="#112b25" stroke="#315448" stroke-width="4"/><path d="M135 160h245M135 210h160M135 370h380" stroke="#c7f267" stroke-width="12"/><rect x="135" y="270" width="75" height="65" rx="12" fill="#f3a82b"/><rect x="225" y="270" width="75" height="65" rx="12" fill="#167447"/><rect x="315" y="270" width="75" height="65" rx="12" fill="#fff"/><circle cx="700" cy="385" r="170" fill="#fff"/><path d="m700 278 62 45-24 73h-76l-24-73z" fill="#167447"/><path d="m581 340 57-17 24 73-62 45-54-42zm238 0 35 59-54 42-62-45 24-73zM600 441l62-45h76l62 45-24 74H624z" fill="#071525"/><circle cx="700" cy="385" r="32" fill="#f3a82b"/></svg>
