<svg xmlns="http://www.w3.org/2000/svg" viewBox="0 0 960 700"><rect width="960" height="700" fill="#17382f"/><circle cx="820" cy="100" r="220" fill="#c7f267" opacity=".15"/><path d="M0 525c240-130 490-95 960-270v445H0z" fill="#167447" opacity=".5"/><circle cx="635" cy="326" r="155" fill="#fff"/><path d="m635 228 57 42-22 66h-70l-22-66z" fill="#f3a82b"/><path d="m526 292 52-22 22 66-58 42-48-36zm218 0 32 50-48 36-58-42 22-66zM542 378l58-42h70l58 42-22 67H564z" fill="#071525"/><path d="M105 525h310" stroke="#fff" stroke-width="8" stroke-dasharray="20 14"/></svg>
