<svg xmlns="http://www.w3.org/2000/svg" viewBox="0 0 650 650"><rect width="650" height="650" rx="40" fill="#102b25"/><rect x="65" y="76" width="235" height="150" rx="18" fill="#fff" opacity=".08"/><path d="M95 115h140M95 155h90" stroke="#c7f267" stroke-width="10"/><circle cx="390" cy="360" r="190" fill="#fff"/><path d="m390 240 70 51-27 82h-86l-27-82z" fill="#167447"/><path d="m260 310 60-19 27 82-70 51-55-44zm260 0 38 70-55 44-70-51 27-82zM277 424l70-51h86l70 51-27 83H304z" fill="#0b1727"/><circle cx="390" cy="360" r="42" fill="#f3a82b"/><text x="390" y="369" text-anchor="middle" font-family="Arial,sans-serif" font-size="21" font-weight="700" fill="#0b1727">LOGO</text><path d="m88 520 125-55M105 555l125-55" stroke="#f3a82b" stroke-width="13" stroke-linecap="round"/></svg>
