<svg xmlns="http://www.w3.org/2000/svg" viewBox="0 0 760 640"><rect width="760" height="640" rx="36" fill="#edf4ef"/><path d="M75 490h610M120 490V275l130-80v90l130-90v90l130-90v90l130-80v285" fill="#fff" stroke="#0b1727" stroke-width="12" stroke-linejoin="round"/><path d="M140 335h90v80h-90zm145 0h90v80h-90zm145 0h90v80h-90z" fill="#c7f267"/><path d="M555 320h55M555 365h55M555 410h55" stroke="#f3a82b" stroke-width="12"/><circle cx="210" cy="180" r="58" fill="#fff" stroke="#167447" stroke-width="10"/><path d="m210 144 21 15-8 25h-26l-8-25z" fill="#0b1727"/><path d="M250 180h70" stroke="#167447" stroke-width="8" stroke-dasharray="16 12"/><circle cx="380" cy="180" r="34" fill="#f3a82b"/><path d="M414 180h70" stroke="#167447" stroke-width="8" stroke-dasharray="16 12"/></svg>
