<svg xmlns="http://www.w3.org/2000/svg" viewBox="0 0 760 760" role="img" aria-labelledby="t d"><title id="t">Stylized football</title><desc id="d">Original geometric football placeholder in green, navy, white and gold.</desc><defs><radialGradient id="g"><stop offset="0" stop-color="#fff"/><stop offset=".72" stop-color="#e9f2ec"/><stop offset="1" stop-color="#b8c9be"/></radialGradient><filter id="s"><feDropShadow dx="0" dy="22" stdDeviation="24" flood-opacity=".35"/></filter></defs><g filter="url(#s)"><circle cx="380" cy="380" r="264" fill="url(#g)"/><path fill="#0b1727" d="m380 218 77 56-29 91h-96l-29-91z"/><path fill="#167447" d="m238 275 65-1 29 91-77 55-73-52zM522 275l56 93-73 52-77-55 29-91zM255 420l77-55 76 55-29 91H285zM505 420l73 52-56 93-103-5-40-49 29-91z" opacity=".94"/><path fill="none" stroke="#f3a82b" stroke-width="13" d="M238 275c-57 74-75 156-43 235M522 275c57 74 75 156 43 235M285 511c61 44 127 61 197 40"/><path fill="none" stroke="#0b1727" stroke-width="11" d="m303 274-54-101M457 274l54-101M332 365l-150 3M428 365l150 3M379 511v115"/><circle cx="380" cy="380" r="264" fill="none" stroke="#fff" stroke-opacity=".55" stroke-width="9"/></g></svg>
