<svg xmlns="http://www.w3.org/2000/svg" viewBox="0 0 640 640"><rect width="640" height="640" rx="40" fill="#eef3f7"/><circle cx="320" cy="316" r="196" fill="#fff" stroke="#dce3e8" stroke-width="8"/><path d="m320 198 71 51-27 83h-88l-27-83z" fill="#167447"/><path d="m177 273 72-24 27 83-70 51-61-44zm286-1 32 67-61 44-70-51 27-83zM206 383l70-51h88l70 51-27 83H233z" fill="#0b1727"/><path d="M145 339c27 87 87 144 178 170M495 339c-27 87-87 144-178 170" stroke="#f3a82b" stroke-width="11" fill="none"/></svg>
