<svg xmlns="http://www.w3.org/2000/svg" viewBox="0 0 640 640"><rect width="640" height="640" rx="40" fill="#f2f4f5"/><circle cx="320" cy="316" r="208" fill="#fdfefe" stroke="#dce3e8" stroke-width="8"/><path d="m320 180 81 59-31 95H270l-31-95z" fill="#0b1727"/><path d="m164 247 75-8 31 95-80 58-66-55zm312-1 40 91-66 55-80-58 31-95zM190 392l80-58h100l80 58-30 93H220z" fill="#f3a82b"/><path d="M164 247 96 334m420 3 29 106M220 485l-6 100m206-100 61 81" stroke="#167447" stroke-width="13" fill="none"/></svg>
